<svg xmlns="http://www.w3.org/2000/svg" xmlns:xlink="http://www.w3.org/1999/xlink" width="1920" zoomAndPan="magnify" viewBox="0 0 1440 809.999993" height="1080" preserveAspectRatio="xMidYMid meet" version="1.0"><defs><clipPath id="8a5c13a1b0"><path d="M 542 504 L 586 504 L 586 522 L 542 522 Z M 542 504 " clip-rule="nonzero"/></clipPath><clipPath id="609a41bc3b"><path d="M 466.304688 462.242188 L 721.242188 144.660156 L 973.90625 347.484375 L 718.96875 665.066406 Z M 466.304688 462.242188 " clip-rule="nonzero"/></clipPath><clipPath id="f538a17c20"><path d="M 466.304688 462.242188 L 721.242188 144.660156 L 973.90625 347.484375 L 718.96875 665.066406 Z M 466.304688 462.242188 " clip-rule="nonzero"/></clipPath><clipPath id="4619d25c4d"><path d="M 466.304688 462.242188 L 721.242188 144.660156 L 973.90625 347.484375 L 718.96875 665.066406 Z M 466.304688 462.242188 " clip-rule="nonzero"/></clipPath><clipPath id="3f2c331cff"><path d="M 583 517 L 626 517 L 626 535 L 583 535 Z M 583 517 " clip-rule="nonzero"/></clipPath><clipPath id="350e1a45ff"><path d="M 466.304688 462.242188 L 721.242188 144.660156 L 973.90625 347.484375 L 718.96875 665.066406 Z M 466.304688 462.242188 " clip-rule="nonzero"/></clipPath><clipPath id="0e3cebbdce"><path d="M 466.304688 462.242188 L 721.242188 144.660156 L 973.90625 347.484375 L 718.96875 665.066406 Z M 466.304688 462.242188 " clip-rule="nonzero"/></clipPath><clipPath id="b667f79085"><path d="M 466.304688 462.242188 L 721.242188 144.660156 L 973.90625 347.484375 L 718.96875 665.066406 Z M 466.304688 462.242188 " clip-rule="nonzero"/></clipPath><clipPath id="90770c421c"><path d="M 779 285 L 820 285 L 820 306 L 779 306 Z M 779 285 " clip-rule="nonzero"/></clipPath><clipPath id="38c003cbe8"><path d="M 466.304688 462.242188 L 721.242188 144.660156 L 973.90625 347.484375 L 718.96875 665.066406 Z M 466.304688 462.242188 " clip-rule="nonzero"/></clipPath><clipPath id="4b0bd14e67"><path d="M 466.304688 462.242188 L 721.242188 144.660156 L 973.90625 347.484375 L 718.96875 665.066406 Z M 466.304688 462.242188 " clip-rule="nonzero"/></clipPath><clipPath id="903b0db3d3"><path d="M 466.304688 462.242188 L 721.242188 144.660156 L 973.90625 347.484375 L 718.96875 665.066406 Z M 466.304688 462.242188 " clip-rule="nonzero"/></clipPath><clipPath id="d3c1060809"><path d="M 758 308 L 800 308 L 800 327 L 758 327 Z M 758 308 " clip-rule="nonzero"/></clipPath><clipPath id="02e0b4b16f"><path d="M 466.304688 462.242188 L 721.242188 144.660156 L 973.90625 347.484375 L 718.96875 665.066406 Z M 466.304688 462.242188 " clip-rule="nonzero"/></clipPath><clipPath id="8c0841f797"><path d="M 466.304688 462.242188 L 721.242188 144.660156 L 973.90625 347.484375 L 718.96875 665.066406 Z M 466.304688 462.242188 " clip-rule="nonzero"/></clipPath><clipPath id="fca3b89ffe"><path d="M 466.304688 462.242188 L 721.242188 144.660156 L 973.90625 347.484375 L 718.96875 665.066406 Z M 466.304688 462.242188 " clip-rule="nonzero"/></clipPath><clipPath id="84d76fbc31"><path d="M 730 328 L 773 328 L 773 347 L 730 347 Z M 730 328 " clip-rule="nonzero"/></clipPath><clipPath id="b424f9bf1d"><path d="M 466.304688 462.242188 L 721.242188 144.660156 L 973.90625 347.484375 L 718.96875 665.066406 Z M 466.304688 462.242188 " clip-rule="nonzero"/></clipPath><clipPath id="9442270e8d"><path d="M 466.304688 462.242188 L 721.242188 144.660156 L 973.90625 347.484375 L 718.96875 665.066406 Z M 466.304688 462.242188 " clip-rule="nonzero"/></clipPath><clipPath id="ceac867e67"><path d="M 466.304688 462.242188 L 721.242188 144.660156 L 973.90625 347.484375 L 718.96875 665.066406 Z M 466.304688 462.242188 " clip-rule="nonzero"/></clipPath><clipPath id="3dd4d8e66b"><path d="M 711 349 L 745 349 L 745 376 L 711 376 Z M 711 349 " clip-rule="nonzero"/></clipPath><clipPath id="b57c33e210"><path d="M 466.304688 462.242188 L 721.242188 144.660156 L 973.90625 347.484375 L 718.96875 665.066406 Z M 466.304688 462.242188 " clip-rule="nonzero"/></clipPath><clipPath id="681f77e9ab"><path d="M 466.304688 462.242188 L 721.242188 144.660156 L 973.90625 347.484375 L 718.96875 665.066406 Z M 466.304688 462.242188 " clip-rule="nonzero"/></clipPath><clipPath id="489d766d12"><path d="M 466.304688 462.242188 L 721.242188 144.660156 L 973.90625 347.484375 L 718.96875 665.066406 Z M 466.304688 462.242188 " clip-rule="nonzero"/></clipPath><clipPath id="cfcf1139f2"><path d="M 699 378 L 724 378 L 724 415 L 699 415 Z M 699 378 " clip-rule="nonzero"/></clipPath><clipPath id="7700e11dfa"><path d="M 466.304688 462.242188 L 721.242188 144.660156 L 973.90625 347.484375 L 718.96875 665.066406 Z M 466.304688 462.242188 " clip-rule="nonzero"/></clipPath><clipPath id="ef54def65e"><path d="M 466.304688 462.242188 L 721.242188 144.660156 L 973.90625 347.484375 L 718.96875 665.066406 Z M 466.304688 462.242188 " clip-rule="nonzero"/></clipPath><clipPath id="f55f70a998"><path d="M 466.304688 462.242188 L 721.242188 144.660156 L 973.90625 347.484375 L 718.96875 665.066406 Z M 466.304688 462.242188 " clip-rule="nonzero"/></clipPath><clipPath id="55c1582d21"><path d="M 699 409 L 719 409 L 719 450 L 699 450 Z M 699 409 " clip-rule="nonzero"/></clipPath><clipPath id="9c3f54ae91"><path d="M 466.304688 462.242188 L 721.242188 144.660156 L 973.90625 347.484375 L 718.96875 665.066406 Z M 466.304688 462.242188 " clip-rule="nonzero"/></clipPath><clipPath id="d00e9fe8ca"><path d="M 466.304688 462.242188 L 721.242188 144.660156 L 973.90625 347.484375 L 718.96875 665.066406 Z M 466.304688 462.242188 " clip-rule="nonzero"/></clipPath><clipPath id="ceb10e8484"><path d="M 466.304688 462.242188 L 721.242188 144.660156 L 973.90625 347.484375 L 718.96875 665.066406 Z M 466.304688 462.242188 " clip-rule="nonzero"/></clipPath><clipPath id="fcc11995b1"><path d="M 703 439 L 766 439 L 766 591 L 703 591 Z M 703 439 " clip-rule="nonzero"/></clipPath><clipPath id="3f73ac467f"><path d="M 466.304688 462.242188 L 721.242188 144.660156 L 973.90625 347.484375 L 718.96875 665.066406 Z M 466.304688 462.242188 " clip-rule="nonzero"/></clipPath><clipPath id="c7716c4e1b"><path d="M 466.304688 462.242188 L 721.242188 144.660156 L 973.90625 347.484375 L 718.96875 665.066406 Z M 466.304688 462.242188 " clip-rule="nonzero"/></clipPath><clipPath id="901918f5c3"><path d="M 466.304688 462.242188 L 721.242188 144.660156 L 973.90625 347.484375 L 718.96875 665.066406 Z M 466.304688 462.242188 " clip-rule="nonzero"/></clipPath><clipPath id="b91a0e1442"><path d="M 750 284 L 779 284 L 779 317 L 750 317 Z M 750 284 " clip-rule="nonzero"/></clipPath><clipPath id="1ac86ad6f2"><path d="M 466.304688 462.242188 L 721.242188 144.660156 L 973.90625 347.484375 L 718.96875 665.066406 Z M 466.304688 462.242188 " clip-rule="nonzero"/></clipPath><clipPath id="3c325abd87"><path d="M 466.304688 462.242188 L 721.242188 144.660156 L 973.90625 347.484375 L 718.96875 665.066406 Z M 466.304688 462.242188 " clip-rule="nonzero"/></clipPath><clipPath id="a9d6938365"><path d="M 466.304688 462.242188 L 721.242188 144.660156 L 973.90625 347.484375 L 718.96875 665.066406 Z M 466.304688 462.242188 " clip-rule="nonzero"/></clipPath><clipPath id="4dea4ed138"><path d="M 722 301 L 746 301 L 746 338 L 722 338 Z M 722 301 " clip-rule="nonzero"/></clipPath><clipPath id="27d0abc5b7"><path d="M 466.304688 462.242188 L 721.242188 144.660156 L 973.90625 347.484375 L 718.96875 665.066406 Z M 466.304688 462.242188 " clip-rule="nonzero"/></clipPath><clipPath id="818a8e284c"><path d="M 466.304688 462.242188 L 721.242188 144.660156 L 973.90625 347.484375 L 718.96875 665.066406 Z M 466.304688 462.242188 " clip-rule="nonzero"/></clipPath><clipPath id="43455ddf79"><path d="M 466.304688 462.242188 L 721.242188 144.660156 L 973.90625 347.484375 L 718.96875 665.066406 Z M 466.304688 462.242188 " clip-rule="nonzero"/></clipPath><clipPath id="7f8963761c"><path d="M 700 322 L 717 322 L 717 365 L 700 365 Z M 700 322 " clip-rule="nonzero"/></clipPath><clipPath id="f17319f632"><path d="M 466.304688 462.242188 L 721.242188 144.660156 L 973.90625 347.484375 L 718.96875 665.066406 Z M 466.304688 462.242188 " clip-rule="nonzero"/></clipPath><clipPath id="c4ac9d30b0"><path d="M 466.304688 462.242188 L 721.242188 144.660156 L 973.90625 347.484375 L 718.96875 665.066406 Z M 466.304688 462.242188 " clip-rule="nonzero"/></clipPath><clipPath id="6a34a830e4"><path d="M 466.304688 462.242188 L 721.242188 144.660156 L 973.90625 347.484375 L 718.96875 665.066406 Z M 466.304688 462.242188 " clip-rule="nonzero"/></clipPath><clipPath id="b8c1bc1761"><path d="M 684 349 L 703 349 L 703 393 L 684 393 Z M 684 349 " clip-rule="nonzero"/></clipPath><clipPath id="b1552d9404"><path d="M 466.304688 462.242188 L 721.242188 144.660156 L 973.90625 347.484375 L 718.96875 665.066406 Z M 466.304688 462.242188 " clip-rule="nonzero"/></clipPath><clipPath id="ca75b4aafc"><path d="M 466.304688 462.242188 L 721.242188 144.660156 L 973.90625 347.484375 L 718.96875 665.066406 Z M 466.304688 462.242188 " clip-rule="nonzero"/></clipPath><clipPath id="8447f03ceb"><path d="M 466.304688 462.242188 L 721.242188 144.660156 L 973.90625 347.484375 L 718.96875 665.066406 Z M 466.304688 462.242188 " clip-rule="nonzero"/></clipPath><clipPath id="4a2c8a13b6"><path d="M 673 383 L 694 383 L 694 423 L 673 423 Z M 673 383 " clip-rule="nonzero"/></clipPath><clipPath id="16509ecd9c"><path d="M 466.304688 462.242188 L 721.242188 144.660156 L 973.90625 347.484375 L 718.96875 665.066406 Z M 466.304688 462.242188 " clip-rule="nonzero"/></clipPath><clipPath id="606923e6c8"><path d="M 466.304688 462.242188 L 721.242188 144.660156 L 973.90625 347.484375 L 718.96875 665.066406 Z M 466.304688 462.242188 " clip-rule="nonzero"/></clipPath><clipPath id="369438b637"><path d="M 466.304688 462.242188 L 721.242188 144.660156 L 973.90625 347.484375 L 718.96875 665.066406 Z M 466.304688 462.242188 " clip-rule="nonzero"/></clipPath><clipPath id="58f55a63f6"><path d="M 618 407 L 772 407 L 772 597 L 618 597 Z M 618 407 " clip-rule="nonzero"/></clipPath><clipPath id="cc02b5715d"><path d="M 466.304688 462.242188 L 721.242188 144.660156 L 973.90625 347.484375 L 718.96875 665.066406 Z M 466.304688 462.242188 " clip-rule="nonzero"/></clipPath><clipPath id="37e6a32078"><path d="M 466.304688 462.242188 L 721.242188 144.660156 L 973.90625 347.484375 L 718.96875 665.066406 Z M 466.304688 462.242188 " clip-rule="nonzero"/></clipPath><clipPath id="9c19aa9d6b"><path d="M 466.304688 462.242188 L 721.242188 144.660156 L 973.90625 347.484375 L 718.96875 665.066406 Z M 466.304688 462.242188 " clip-rule="nonzero"/></clipPath><clipPath id="4a2761f817"><path d="M 633 495 L 665 495 L 665 525 L 633 525 Z M 633 495 " clip-rule="nonzero"/></clipPath><clipPath id="13007fe8a0"><path d="M 466.304688 462.242188 L 721.242188 144.660156 L 973.90625 347.484375 L 718.96875 665.066406 Z M 466.304688 462.242188 " clip-rule="nonzero"/></clipPath><clipPath id="d26a4273d5"><path d="M 466.304688 462.242188 L 721.242188 144.660156 L 973.90625 347.484375 L 718.96875 665.066406 Z M 466.304688 462.242188 " clip-rule="nonzero"/></clipPath><clipPath id="f72b81ac61"><path d="M 466.304688 462.242188 L 721.242188 144.660156 L 973.90625 347.484375 L 718.96875 665.066406 Z M 466.304688 462.242188 " clip-rule="nonzero"/></clipPath><clipPath id="8242cba680"><path d="M 511 477 L 552 477 L 552 497 L 511 497 Z M 511 477 " clip-rule="nonzero"/></clipPath><clipPath id="4b3ba89e51"><path d="M 466.304688 462.242188 L 721.242188 144.660156 L 973.90625 347.484375 L 718.96875 665.066406 Z M 466.304688 462.242188 " clip-rule="nonzero"/></clipPath><clipPath id="ff82175465"><path d="M 466.304688 462.242188 L 721.242188 144.660156 L 973.90625 347.484375 L 718.96875 665.066406 Z M 466.304688 462.242188 " clip-rule="nonzero"/></clipPath><clipPath id="e01e6f9e89"><path d="M 466.304688 462.242188 L 721.242188 144.660156 L 973.90625 347.484375 L 718.96875 665.066406 Z M 466.304688 462.242188 " clip-rule="nonzero"/></clipPath><clipPath id="d6969ee056"><path d="M 552 475 L 592 475 L 592 497 L 552 497 Z M 552 475 " clip-rule="nonzero"/></clipPath><clipPath id="624635ca44"><path d="M 466.304688 462.242188 L 721.242188 144.660156 L 973.90625 347.484375 L 718.96875 665.066406 Z M 466.304688 462.242188 " clip-rule="nonzero"/></clipPath><clipPath id="c9f87abe69"><path d="M 466.304688 462.242188 L 721.242188 144.660156 L 973.90625 347.484375 L 718.96875 665.066406 Z M 466.304688 462.242188 " clip-rule="nonzero"/></clipPath><clipPath id="9bfbcfac62"><path d="M 466.304688 462.242188 L 721.242188 144.660156 L 973.90625 347.484375 L 718.96875 665.066406 Z M 466.304688 462.242188 " clip-rule="nonzero"/></clipPath><clipPath id="2d861e18d4"><path d="M 596 486 L 631 486 L 631 513 L 596 513 Z M 596 486 " clip-rule="nonzero"/></clipPath><clipPath id="e4c7f2af05"><path d="M 466.304688 462.242188 L 721.242188 144.660156 L 973.90625 347.484375 L 718.96875 665.066406 Z M 466.304688 462.242188 " clip-rule="nonzero"/></clipPath><clipPath id="56a6176d1d"><path d="M 466.304688 462.242188 L 721.242188 144.660156 L 973.90625 347.484375 L 718.96875 665.066406 Z M 466.304688 462.242188 " clip-rule="nonzero"/></clipPath><clipPath id="0184b7e189"><path d="M 466.304688 462.242188 L 721.242188 144.660156 L 973.90625 347.484375 L 718.96875 665.066406 Z M 466.304688 462.242188 " clip-rule="nonzero"/></clipPath><clipPath id="a65d5753d9"><path d="M 655 563 L 771 563 L 771 614 L 655 614 Z M 655 563 " clip-rule="nonzero"/></clipPath><clipPath id="c9771fb2e4"><path d="M 466.304688 462.242188 L 721.242188 144.660156 L 973.90625 347.484375 L 718.96875 665.066406 Z M 466.304688 462.242188 " clip-rule="nonzero"/></clipPath><clipPath id="7e61bff1ef"><path d="M 466.304688 462.242188 L 721.242188 144.660156 L 973.90625 347.484375 L 718.96875 665.066406 Z M 466.304688 462.242188 " clip-rule="nonzero"/></clipPath><clipPath id="a19cf34a12"><path d="M 466.304688 462.242188 L 721.242188 144.660156 L 973.90625 347.484375 L 718.96875 665.066406 Z M 466.304688 462.242188 " clip-rule="nonzero"/></clipPath><clipPath id="7d9b655c52"><path d="M 734 387 L 781 387 L 781 597 L 734 597 Z M 734 387 " clip-rule="nonzero"/></clipPath><clipPath id="b72bf53cba"><path d="M 466.304688 462.242188 L 721.242188 144.660156 L 973.90625 347.484375 L 718.96875 665.066406 Z M 466.304688 462.242188 " clip-rule="nonzero"/></clipPath><clipPath id="d39b48cbf3"><path d="M 466.304688 462.242188 L 721.242188 144.660156 L 973.90625 347.484375 L 718.96875 665.066406 Z M 466.304688 462.242188 " clip-rule="nonzero"/></clipPath><clipPath id="8a2ad8b46c"><path d="M 466.304688 462.242188 L 721.242188 144.660156 L 973.90625 347.484375 L 718.96875 665.066406 Z M 466.304688 462.242188 " clip-rule="nonzero"/></clipPath><clipPath id="c1ae3893d0"><path d="M 720 181 L 770 181 L 770 213 L 720 213 Z M 720 181 " clip-rule="nonzero"/></clipPath><clipPath id="45e573f6bb"><path d="M 466.304688 462.242188 L 721.242188 144.660156 L 973.90625 347.484375 L 718.96875 665.066406 Z M 466.304688 462.242188 " clip-rule="nonzero"/></clipPath><clipPath id="35ebbb5cda"><path d="M 466.304688 462.242188 L 721.242188 144.660156 L 973.90625 347.484375 L 718.96875 665.066406 Z M 466.304688 462.242188 " clip-rule="nonzero"/></clipPath><clipPath id="55f4142183"><path d="M 466.304688 462.242188 L 721.242188 144.660156 L 973.90625 347.484375 L 718.96875 665.066406 Z M 466.304688 462.242188 " clip-rule="nonzero"/></clipPath><clipPath id="5197ddb233"><path d="M 696 217 L 751 217 L 751 245 L 696 245 Z M 696 217 " clip-rule="nonzero"/></clipPath><clipPath id="df9cf70f60"><path d="M 466.304688 462.242188 L 721.242188 144.660156 L 973.90625 347.484375 L 718.96875 665.066406 Z M 466.304688 462.242188 " clip-rule="nonzero"/></clipPath><clipPath id="47062d6403"><path d="M 466.304688 462.242188 L 721.242188 144.660156 L 973.90625 347.484375 L 718.96875 665.066406 Z M 466.304688 462.242188 " clip-rule="nonzero"/></clipPath><clipPath id="deecd16674"><path d="M 466.304688 462.242188 L 721.242188 144.660156 L 973.90625 347.484375 L 718.96875 665.066406 Z M 466.304688 462.242188 " clip-rule="nonzero"/></clipPath><clipPath id="4dd4a7fce7"><path d="M 665 250 L 718 250 L 718 278 L 665 278 Z M 665 250 " clip-rule="nonzero"/></clipPath><clipPath id="374a5e7cdb"><path d="M 466.304688 462.242188 L 721.242188 144.660156 L 973.90625 347.484375 L 718.96875 665.066406 Z M 466.304688 462.242188 " clip-rule="nonzero"/></clipPath><clipPath id="94638028b7"><path d="M 466.304688 462.242188 L 721.242188 144.660156 L 973.90625 347.484375 L 718.96875 665.066406 Z M 466.304688 462.242188 " clip-rule="nonzero"/></clipPath><clipPath id="7c3befb304"><path d="M 466.304688 462.242188 L 721.242188 144.660156 L 973.90625 347.484375 L 718.96875 665.066406 Z M 466.304688 462.242188 " clip-rule="nonzero"/></clipPath><clipPath id="7761489411"><path d="M 647 282 L 686 282 L 686 325 L 647 325 Z M 647 282 " clip-rule="nonzero"/></clipPath><clipPath id="fbee592067"><path d="M 466.304688 462.242188 L 721.242188 144.660156 L 973.90625 347.484375 L 718.96875 665.066406 Z M 466.304688 462.242188 " clip-rule="nonzero"/></clipPath><clipPath id="a59cda425a"><path d="M 466.304688 462.242188 L 721.242188 144.660156 L 973.90625 347.484375 L 718.96875 665.066406 Z M 466.304688 462.242188 " clip-rule="nonzero"/></clipPath><clipPath id="ac5d632de6"><path d="M 466.304688 462.242188 L 721.242188 144.660156 L 973.90625 347.484375 L 718.96875 665.066406 Z M 466.304688 462.242188 " clip-rule="nonzero"/></clipPath><clipPath id="69593657fd"><path d="M 639 326 L 667 326 L 667 380 L 639 380 Z M 639 326 " clip-rule="nonzero"/></clipPath><clipPath id="9734529ac4"><path d="M 466.304688 462.242188 L 721.242188 144.660156 L 973.90625 347.484375 L 718.96875 665.066406 Z M 466.304688 462.242188 " clip-rule="nonzero"/></clipPath><clipPath id="c74ad7bdad"><path d="M 466.304688 462.242188 L 721.242188 144.660156 L 973.90625 347.484375 L 718.96875 665.066406 Z M 466.304688 462.242188 " clip-rule="nonzero"/></clipPath><clipPath id="f5a3b80c67"><path d="M 466.304688 462.242188 L 721.242188 144.660156 L 973.90625 347.484375 L 718.96875 665.066406 Z M 466.304688 462.242188 " clip-rule="nonzero"/></clipPath><clipPath id="b1e18ff1a0"><path d="M 645 368 L 670 368 L 670 425 L 645 425 Z M 645 368 " clip-rule="nonzero"/></clipPath><clipPath id="f695a0af68"><path d="M 466.304688 462.242188 L 721.242188 144.660156 L 973.90625 347.484375 L 718.96875 665.066406 Z M 466.304688 462.242188 " clip-rule="nonzero"/></clipPath><clipPath id="86d137e69a"><path d="M 466.304688 462.242188 L 721.242188 144.660156 L 973.90625 347.484375 L 718.96875 665.066406 Z M 466.304688 462.242188 " clip-rule="nonzero"/></clipPath><clipPath id="8fad180d42"><path d="M 466.304688 462.242188 L 721.242188 144.660156 L 973.90625 347.484375 L 718.96875 665.066406 Z M 466.304688 462.242188 " clip-rule="nonzero"/></clipPath><clipPath id="56b2f5b20d"><path d="M 609 432 L 655 432 L 655 469 L 609 469 Z M 609 432 " clip-rule="nonzero"/></clipPath><clipPath id="4fcbc69243"><path d="M 466.304688 462.242188 L 721.242188 144.660156 L 973.90625 347.484375 L 718.96875 665.066406 Z M 466.304688 462.242188 " clip-rule="nonzero"/></clipPath><clipPath id="7579280b40"><path d="M 466.304688 462.242188 L 721.242188 144.660156 L 973.90625 347.484375 L 718.96875 665.066406 Z M 466.304688 462.242188 " clip-rule="nonzero"/></clipPath><clipPath id="27b7d85f7d"><path d="M 466.304688 462.242188 L 721.242188 144.660156 L 973.90625 347.484375 L 718.96875 665.066406 Z M 466.304688 462.242188 " clip-rule="nonzero"/></clipPath><clipPath id="7440406971"><path d="M 684 188 L 716 188 L 716 237 L 684 237 Z M 684 188 " clip-rule="nonzero"/></clipPath><clipPath id="89747f1df3"><path d="M 466.304688 462.242188 L 721.242188 144.660156 L 973.90625 347.484375 L 718.96875 665.066406 Z M 466.304688 462.242188 " clip-rule="nonzero"/></clipPath><clipPath id="ad6167842b"><path d="M 466.304688 462.242188 L 721.242188 144.660156 L 973.90625 347.484375 L 718.96875 665.066406 Z M 466.304688 462.242188 " clip-rule="nonzero"/></clipPath><clipPath id="360e56f1cb"><path d="M 466.304688 462.242188 L 721.242188 144.660156 L 973.90625 347.484375 L 718.96875 665.066406 Z M 466.304688 462.242188 " clip-rule="nonzero"/></clipPath><clipPath id="7ba84303af"><path d="M 650 218 L 677 218 L 677 272 L 650 272 Z M 650 218 " clip-rule="nonzero"/></clipPath><clipPath id="a43504c44f"><path d="M 466.304688 462.242188 L 721.242188 144.660156 L 973.90625 347.484375 L 718.96875 665.066406 Z M 466.304688 462.242188 " clip-rule="nonzero"/></clipPath><clipPath id="51541f6cec"><path d="M 466.304688 462.242188 L 721.242188 144.660156 L 973.90625 347.484375 L 718.96875 665.066406 Z M 466.304688 462.242188 " clip-rule="nonzero"/></clipPath><clipPath id="35389810a6"><path d="M 466.304688 462.242188 L 721.242188 144.660156 L 973.90625 347.484375 L 718.96875 665.066406 Z M 466.304688 462.242188 " clip-rule="nonzero"/></clipPath><clipPath id="d7faf0a6cd"><path d="M 625 253 L 648 253 L 648 312 L 625 312 Z M 625 253 " clip-rule="nonzero"/></clipPath><clipPath id="9d408e4ade"><path d="M 466.304688 462.242188 L 721.242188 144.660156 L 973.90625 347.484375 L 718.96875 665.066406 Z M 466.304688 462.242188 " clip-rule="nonzero"/></clipPath><clipPath id="3f01474c74"><path d="M 466.304688 462.242188 L 721.242188 144.660156 L 973.90625 347.484375 L 718.96875 665.066406 Z M 466.304688 462.242188 " clip-rule="nonzero"/></clipPath><clipPath id="f2dca7f162"><path d="M 466.304688 462.242188 L 721.242188 144.660156 L 973.90625 347.484375 L 718.96875 665.066406 Z M 466.304688 462.242188 " clip-rule="nonzero"/></clipPath><clipPath id="bbbb63d985"><path d="M 610 294 L 635 294 L 635 352 L 610 352 Z M 610 294 " clip-rule="nonzero"/></clipPath><clipPath id="62f8ccdbbd"><path d="M 466.304688 462.242188 L 721.242188 144.660156 L 973.90625 347.484375 L 718.96875 665.066406 Z M 466.304688 462.242188 " clip-rule="nonzero"/></clipPath><clipPath id="5d9f23bf6a"><path d="M 466.304688 462.242188 L 721.242188 144.660156 L 973.90625 347.484375 L 718.96875 665.066406 Z M 466.304688 462.242188 " clip-rule="nonzero"/></clipPath><clipPath id="a67806edac"><path d="M 466.304688 462.242188 L 721.242188 144.660156 L 973.90625 347.484375 L 718.96875 665.066406 Z M 466.304688 462.242188 " clip-rule="nonzero"/></clipPath><clipPath id="1333e6b113"><path d="M 600 343 L 634 343 L 634 392 L 600 392 Z M 600 343 " clip-rule="nonzero"/></clipPath><clipPath id="9a0dab29b8"><path d="M 466.304688 462.242188 L 721.242188 144.660156 L 973.90625 347.484375 L 718.96875 665.066406 Z M 466.304688 462.242188 " clip-rule="nonzero"/></clipPath><clipPath id="6584613bf3"><path d="M 466.304688 462.242188 L 721.242188 144.660156 L 973.90625 347.484375 L 718.96875 665.066406 Z M 466.304688 462.242188 " clip-rule="nonzero"/></clipPath><clipPath id="654e7155b6"><path d="M 466.304688 462.242188 L 721.242188 144.660156 L 973.90625 347.484375 L 718.96875 665.066406 Z M 466.304688 462.242188 " clip-rule="nonzero"/></clipPath><clipPath id="e09d4db90f"><path d="M 599 389 L 642 389 L 642 429 L 599 429 Z M 599 389 " clip-rule="nonzero"/></clipPath><clipPath id="bef1a398bf"><path d="M 466.304688 462.242188 L 721.242188 144.660156 L 973.90625 347.484375 L 718.96875 665.066406 Z M 466.304688 462.242188 " clip-rule="nonzero"/></clipPath><clipPath id="d852c0a46c"><path d="M 466.304688 462.242188 L 721.242188 144.660156 L 973.90625 347.484375 L 718.96875 665.066406 Z M 466.304688 462.242188 " clip-rule="nonzero"/></clipPath><clipPath id="45600fffde"><path d="M 466.304688 462.242188 L 721.242188 144.660156 L 973.90625 347.484375 L 718.96875 665.066406 Z M 466.304688 462.242188 " clip-rule="nonzero"/></clipPath></defs><rect x="-144" width="1728" fill="#ffffff" y="-80.999999" height="971.999992" fill-opacity="1"/><rect x="-144" width="1728" fill="#ffffff" y="-80.999999" height="971.999992" fill-opacity="1"/><g clip-path="url(#8a5c13a1b0)"><g clip-path="url(#609a41bc3b)"><g clip-path="url(#f538a17c20)"><g clip-path="url(#4619d25c4d)"><path fill="#ffb300" d="M 542.914062 510.128906 C 545.675781 512.835938 548.726562 515.15625 552.074219 517.09375 C 555.421875 519.027344 558.957031 520.515625 562.679688 521.554688 C 566.648438 521.789062 570.554688 521.394531 574.394531 520.367188 C 578.238281 519.34375 581.820312 517.738281 585.144531 515.554688 C 583.847656 514.003906 582.417969 512.589844 580.851562 511.308594 C 579.289062 510.03125 577.617188 508.910156 575.839844 507.945312 C 574.0625 506.980469 572.210938 506.191406 570.285156 505.578125 C 568.359375 504.964844 566.390625 504.535156 564.382812 504.292969 C 562.496094 504.140625 560.605469 504.148438 558.71875 504.324219 C 556.828125 504.5 554.96875 504.835938 553.140625 505.332031 C 551.308594 505.828125 549.535156 506.480469 547.820312 507.289062 C 546.101562 508.09375 544.46875 509.039062 542.914062 510.128906 Z M 542.914062 510.128906 " fill-opacity="1" fill-rule="nonzero"/></g></g></g></g><g clip-path="url(#3f2c331cff)"><g clip-path="url(#350e1a45ff)"><g clip-path="url(#0e3cebbdce)"><g clip-path="url(#b667f79085)"><path fill="#ffb300" d="M 583.417969 528.164062 C 586.699219 530.109375 590.171875 531.632812 593.832031 532.722656 C 597.492188 533.816406 601.230469 534.449219 605.046875 534.617188 C 608.960938 533.945312 612.671875 532.667969 616.175781 530.792969 C 619.679688 528.914062 622.796875 526.53125 625.527344 523.644531 C 623.910156 522.433594 622.191406 521.382812 620.375 520.496094 C 618.558594 519.609375 616.679688 518.898438 614.726562 518.367188 C 612.777344 517.835938 610.796875 517.488281 608.78125 517.328125 C 606.765625 517.171875 604.753906 517.203125 602.746094 517.421875 C 599 518.035156 595.464844 519.265625 592.148438 521.113281 C 588.828125 522.957031 585.917969 525.304688 583.417969 528.164062 Z M 583.417969 528.164062 " fill-opacity="1" fill-rule="nonzero"/></g></g></g></g><g clip-path="url(#90770c421c)"><g clip-path="url(#38c003cbe8)"><g clip-path="url(#4b0bd14e67)"><g clip-path="url(#903b0db3d3)"><path fill="#ffb300" d="M 797.054688 287.375 C 795.148438 288.050781 793.320312 288.894531 791.574219 289.910156 C 789.824219 290.929688 788.1875 292.101562 786.660156 293.429688 C 785.132812 294.753906 783.742188 296.214844 782.488281 297.800781 C 781.238281 299.390625 780.144531 301.082031 779.210938 302.878906 C 782.914062 304.304688 786.75 305.105469 790.714844 305.28125 C 794.679688 305.460938 798.574219 305.007812 802.390625 303.917969 C 805.804688 302.097656 808.941406 299.882812 811.800781 297.273438 C 814.660156 294.667969 817.15625 291.75 819.285156 288.519531 C 817.539062 287.78125 815.738281 287.203125 813.890625 286.777344 C 812.039062 286.355469 810.167969 286.09375 808.273438 285.996094 C 806.378906 285.898438 804.488281 285.964844 802.605469 286.195312 C 800.722656 286.429688 798.871094 286.820312 797.054688 287.375 Z M 797.054688 287.375 " fill-opacity="1" fill-rule="nonzero"/></g></g></g></g><g clip-path="url(#d3c1060809)"><g clip-path="url(#02e0b4b16f)"><g clip-path="url(#8c0841f797)"><g clip-path="url(#fca3b89ffe)"><path fill="#ffb300" d="M 758.117188 321.46875 C 761.5625 323.445312 765.234375 324.832031 769.125 325.632812 C 773.019531 326.429688 776.941406 326.597656 780.890625 326.140625 C 784.488281 324.878906 787.882812 323.199219 791.066406 321.101562 C 794.253906 319.003906 797.136719 316.550781 799.714844 313.742188 C 796.519531 311.71875 793.074219 310.296875 789.382812 309.46875 C 785.691406 308.644531 781.964844 308.464844 778.210938 308.929688 C 776.21875 309.296875 774.277344 309.847656 772.386719 310.582031 C 770.5 311.316406 768.695312 312.21875 766.972656 313.292969 C 765.253906 314.363281 763.648438 315.589844 762.160156 316.964844 C 760.671875 318.339844 759.324219 319.839844 758.117188 321.46875 Z M 758.117188 321.46875 " fill-opacity="1" fill-rule="nonzero"/></g></g></g></g><g clip-path="url(#84d76fbc31)"><g clip-path="url(#b424f9bf1d)"><g clip-path="url(#9442270e8d)"><g clip-path="url(#ceac867e67)"><path fill="#ffb300" d="M 750.285156 328.699219 C 748.320312 329.152344 746.414062 329.785156 744.570312 330.597656 C 742.722656 331.414062 740.96875 332.390625 739.308594 333.535156 C 737.644531 334.679688 736.105469 335.972656 734.6875 337.40625 C 733.269531 338.839844 731.996094 340.398438 730.871094 342.070312 C 734.398438 343.886719 738.121094 345.105469 742.042969 345.726562 C 745.960938 346.347656 749.882812 346.34375 753.800781 345.707031 C 757.347656 344.296875 760.671875 342.476562 763.773438 340.242188 C 766.871094 338.011719 769.648438 335.433594 772.109375 332.511719 C 768.804688 330.628906 765.277344 329.363281 761.53125 328.710938 C 757.785156 328.054688 754.035156 328.050781 750.285156 328.699219 Z M 750.285156 328.699219 " fill-opacity="1" fill-rule="nonzero"/></g></g></g></g><g clip-path="url(#3dd4d8e66b)"><g clip-path="url(#b57c33e210)"><g clip-path="url(#681f77e9ab)"><g clip-path="url(#489d766d12)"><path fill="#ffb300" d="M 723.535156 355.296875 C 721.914062 356.515625 720.425781 357.878906 719.066406 359.382812 C 717.703125 360.886719 716.496094 362.507812 715.445312 364.238281 C 714.390625 365.972656 713.511719 367.789062 712.804688 369.691406 C 712.097656 371.589844 711.574219 373.542969 711.238281 375.542969 C 715.078125 375.148438 718.824219 374.320312 722.472656 373.058594 C 726.121094 371.800781 729.582031 370.140625 732.847656 368.082031 C 735.738281 365.710938 738.210938 362.964844 740.269531 359.847656 C 742.332031 356.726562 743.882812 353.375 744.929688 349.785156 C 741.15625 349.449219 737.433594 349.753906 733.761719 350.699219 C 730.089844 351.644531 726.679688 353.175781 723.535156 355.296875 Z M 723.535156 355.296875 " fill-opacity="1" fill-rule="nonzero"/></g></g></g></g><g clip-path="url(#cfcf1139f2)"><g clip-path="url(#7700e11dfa)"><g clip-path="url(#ef54def65e)"><g clip-path="url(#f55f70a998)"><path fill="#ffb300" d="M 700.4375 414.464844 C 704.292969 413.3125 707.863281 411.582031 711.15625 409.269531 C 714.449219 406.957031 717.289062 404.183594 719.679688 400.949219 C 721.238281 397.46875 722.355469 393.855469 723.03125 390.105469 C 723.710938 386.355469 723.929688 382.578125 723.683594 378.777344 C 720.015625 379.714844 716.609375 381.246094 713.46875 383.363281 C 710.328125 385.480469 707.632812 388.066406 705.386719 391.117188 C 704.25 392.816406 703.285156 394.609375 702.488281 396.492188 C 701.695312 398.375 701.085938 400.316406 700.660156 402.316406 C 700.238281 404.3125 700.007812 406.335938 699.96875 408.378906 C 699.933594 410.421875 700.089844 412.449219 700.4375 414.464844 Z M 700.4375 414.464844 " fill-opacity="1" fill-rule="nonzero"/></g></g></g></g><g clip-path="url(#55c1582d21)"><g clip-path="url(#9c3f54ae91)"><g clip-path="url(#d00e9fe8ca)"><g clip-path="url(#ceb10e8484)"><path fill="#ffb300" d="M 701.414062 425.382812 C 700.652344 427.261719 700.070312 429.195312 699.675781 431.183594 C 699.277344 433.171875 699.070312 435.179688 699.054688 437.207031 C 699.035156 439.234375 699.207031 441.242188 699.570312 443.238281 C 699.933594 445.230469 700.480469 447.171875 701.210938 449.0625 C 704.722656 447.191406 707.859375 444.824219 710.617188 441.960938 C 713.378906 439.097656 715.628906 435.878906 717.367188 432.300781 C 718.25 428.585938 718.660156 424.820312 718.609375 421.003906 C 718.554688 417.1875 718.035156 413.433594 717.050781 409.75 C 713.621094 411.375 710.566406 413.527344 707.882812 416.214844 C 705.199219 418.898438 703.042969 421.953125 701.414062 425.382812 Z M 701.414062 425.382812 " fill-opacity="1" fill-rule="nonzero"/></g></g></g></g><g clip-path="url(#fcc11995b1)"><g clip-path="url(#3f73ac467f)"><g clip-path="url(#c7716c4e1b)"><g clip-path="url(#901918f5c3)"><path fill="#ffb300" d="M 705.652344 455.425781 C 704.851562 457.308594 704.234375 459.25 703.804688 461.25 C 703.378906 463.25 703.144531 465.273438 703.105469 467.320312 C 703.066406 469.363281 703.226562 471.394531 703.578125 473.410156 C 703.929688 475.421875 704.472656 477.386719 705.203125 479.296875 C 705.203125 479.296875 725.71875 552.140625 765.425781 590.382812 C 765.425781 590.382812 720.183594 535.726562 712.429688 474.378906 C 714.496094 472.863281 716.300781 471.082031 717.847656 469.035156 C 719.390625 466.988281 720.609375 464.761719 721.5 462.355469 C 722.363281 458.613281 722.761719 454.820312 722.695312 450.980469 C 722.628906 447.136719 722.101562 443.363281 721.113281 439.652344 C 719.417969 440.464844 717.800781 441.421875 716.269531 442.519531 C 714.738281 443.613281 713.316406 444.835938 711.996094 446.179688 C 710.679688 447.527344 709.488281 448.972656 708.421875 450.527344 C 707.355469 452.078125 706.433594 453.714844 705.652344 455.425781 Z M 705.652344 455.425781 " fill-opacity="1" fill-rule="nonzero"/></g></g></g></g><g clip-path="url(#b91a0e1442)"><g clip-path="url(#1ac86ad6f2)"><g clip-path="url(#3c325abd87)"><g clip-path="url(#a9d6938365)"><path fill="#ffb300" d="M 778.4375 284.980469 C 774.765625 285.492188 771.273438 286.589844 767.964844 288.261719 C 764.652344 289.9375 761.703125 292.101562 759.113281 294.757812 C 757.761719 296.25 756.550781 297.847656 755.480469 299.554688 C 754.414062 301.261719 753.503906 303.050781 752.753906 304.917969 C 752.003906 306.785156 751.421875 308.707031 751.011719 310.675781 C 750.601562 312.648438 750.367188 314.640625 750.3125 316.652344 C 754.160156 315.835938 757.847656 314.558594 761.371094 312.808594 C 764.898438 311.0625 768.152344 308.90625 771.132812 306.335938 C 772.335938 304.835938 773.398438 303.242188 774.324219 301.554688 C 775.253906 299.867188 776.027344 298.113281 776.648438 296.292969 C 777.273438 294.472656 777.734375 292.613281 778.035156 290.714844 C 778.335938 288.8125 778.46875 286.902344 778.4375 284.980469 Z M 778.4375 284.980469 " fill-opacity="1" fill-rule="nonzero"/></g></g></g></g><g clip-path="url(#4dea4ed138)"><g clip-path="url(#27d0abc5b7)"><g clip-path="url(#818a8e284c)"><g clip-path="url(#43455ddf79)"><path fill="#ffb300" d="M 740.945312 323.515625 C 742.679688 320.179688 743.890625 316.664062 744.570312 312.96875 C 745.253906 309.273438 745.378906 305.558594 744.949219 301.824219 C 741.292969 302.863281 737.914062 304.480469 734.8125 306.675781 C 731.707031 308.871094 729.058594 311.519531 726.863281 314.625 C 725.800781 316.351562 724.910156 318.160156 724.1875 320.054688 C 723.46875 321.949219 722.929688 323.894531 722.574219 325.886719 C 722.21875 327.882812 722.054688 329.894531 722.078125 331.917969 C 722.101562 333.945312 722.3125 335.949219 722.714844 337.9375 C 726.257812 336.253906 729.566406 334.191406 732.644531 331.757812 C 735.722656 329.324219 738.488281 326.578125 740.945312 323.515625 Z M 740.945312 323.515625 " fill-opacity="1" fill-rule="nonzero"/></g></g></g></g><g clip-path="url(#7f8963761c)"><g clip-path="url(#f17319f632)"><g clip-path="url(#c4ac9d30b0)"><g clip-path="url(#6a34a830e4)"><path fill="#ffb300" d="M 716.988281 344.828125 C 717.066406 337.136719 715.546875 329.773438 712.441406 322.738281 C 711.667969 323.332031 710.925781 323.957031 710.210938 324.621094 C 709.5 325.285156 708.820312 325.984375 708.175781 326.710938 C 707.53125 327.441406 706.925781 328.199219 706.351562 328.988281 C 705.78125 329.777344 705.25 330.589844 704.757812 331.429688 C 704.265625 332.269531 703.816406 333.132812 703.40625 334.015625 C 702.996094 334.898438 702.632812 335.800781 702.3125 336.71875 C 701.988281 337.636719 701.714844 338.570312 701.480469 339.515625 C 701.25 340.460938 701.066406 341.414062 700.925781 342.378906 C 700.789062 343.34375 700.699219 344.308594 700.652344 345.28125 C 700.609375 346.253906 700.609375 347.226562 700.660156 348.199219 C 700.710938 349.167969 700.804688 350.136719 700.949219 351.097656 C 701.09375 352.0625 701.28125 353.015625 701.519531 353.957031 C 701.753906 354.902344 702.035156 355.832031 702.359375 356.75 C 702.6875 357.667969 703.058594 358.566406 703.46875 359.445312 C 703.882812 360.328125 704.339844 361.183594 704.835938 362.019531 C 705.332031 362.859375 705.867188 363.667969 706.441406 364.453125 C 709.179688 361.8125 711.449219 358.816406 713.25 355.464844 C 715.050781 352.113281 716.296875 348.566406 716.988281 344.828125 Z M 716.988281 344.828125 " fill-opacity="1" fill-rule="nonzero"/></g></g></g></g><g clip-path="url(#b8c1bc1761)"><g clip-path="url(#b1552d9404)"><g clip-path="url(#ca75b4aafc)"><g clip-path="url(#8447f03ceb)"><path fill="#ffb300" d="M 684.597656 370.277344 C 684.570312 372.289062 684.726562 374.28125 685.074219 376.261719 C 685.421875 378.238281 685.953125 380.167969 686.667969 382.046875 C 687.378906 383.925781 688.265625 385.71875 689.316406 387.429688 C 690.371094 389.140625 691.574219 390.738281 692.929688 392.21875 C 695.605469 389.238281 697.742188 385.914062 699.339844 382.238281 C 700.933594 378.566406 701.90625 374.734375 702.257812 370.746094 C 701.757812 366.972656 700.808594 363.3125 699.410156 359.769531 C 698.011719 356.230469 696.199219 352.910156 693.984375 349.816406 C 692.632812 351.183594 691.414062 352.65625 690.324219 354.234375 C 689.234375 355.816406 688.285156 357.476562 687.488281 359.222656 C 686.6875 360.964844 686.042969 362.765625 685.558594 364.625 C 685.074219 366.480469 684.753906 368.367188 684.597656 370.277344 Z M 684.597656 370.277344 " fill-opacity="1" fill-rule="nonzero"/></g></g></g></g><g clip-path="url(#4a2c8a13b6)"><g clip-path="url(#16509ecd9c)"><g clip-path="url(#606923e6c8)"><g clip-path="url(#369438b637)"><path fill="#ffb300" d="M 675.429688 405.488281 C 676.207031 407.359375 677.152344 409.140625 678.265625 410.828125 C 679.378906 412.519531 680.644531 414.089844 682.058594 415.535156 C 683.472656 416.984375 685.007812 418.289062 686.671875 419.445312 C 688.332031 420.597656 690.089844 421.589844 691.9375 422.410156 C 691.9375 422.410156 696.339844 407.792969 691.425781 399.019531 C 689.421875 395.746094 687.046875 392.769531 684.300781 390.089844 C 681.554688 387.410156 678.519531 385.113281 675.195312 383.195312 C 674.566406 384.988281 674.09375 386.824219 673.785156 388.699219 C 673.476562 390.574219 673.332031 392.464844 673.351562 394.363281 C 673.371094 396.265625 673.554688 398.148438 673.90625 400.015625 C 674.253906 401.886719 674.761719 403.710938 675.429688 405.488281 Z M 675.429688 405.488281 " fill-opacity="1" fill-rule="nonzero"/></g></g></g></g><g clip-path="url(#58f55a63f6)"><g clip-path="url(#cc02b5715d)"><g clip-path="url(#37e6a32078)"><g clip-path="url(#9c19aa9d6b)"><path fill="#ffb300" d="M 675.976562 407.570312 C 675.976562 407.570312 676.457031 408.535156 677.113281 410.121094 L 677.707031 411.660156 L 678.480469 413.824219 L 679.285156 416.304688 C 680.042969 418.863281 680.664062 421.453125 681.148438 424.078125 L 681.394531 425.335938 C 681.609375 426.59375 681.75 427.863281 681.808594 429.140625 L 682.023438 432.117188 L 681.972656 434.585938 L 681.753906 437.5 L 681.550781 439.074219 L 680.988281 439.777344 C 680.929688 440.304688 680.808594 440.820312 680.621094 441.316406 L 679.757812 443.710938 L 679.519531 444.007812 C 678.605469 446.089844 677.519531 448.082031 676.265625 449.984375 C 676.117188 450.285156 675.914062 450.539062 675.652344 450.746094 C 675.003906 451.675781 674.296875 452.554688 673.53125 453.390625 L 672.164062 455.089844 C 673.894531 460.628906 675.878906 466.085938 678.242188 471.550781 C 680.601562 477.019531 682.859375 482.5 685.515625 487.722656 C 686.699219 490.214844 687.984375 492.695312 689.261719 495.070312 C 690.535156 497.445312 691.542969 499.316406 692.738281 501.433594 C 693.929688 503.550781 694.855469 505.160156 695.910156 506.972656 C 696.964844 508.785156 697.550781 509.738281 698.332031 511.042969 C 700.886719 515.3125 703.589844 519.511719 706.273438 523.496094 C 707.867188 525.839844 709.507812 528.121094 711.089844 530.355469 C 712.671875 532.589844 714.183594 534.671875 715.632812 536.707031 C 717.085938 538.742188 718.761719 540.859375 720.320312 542.882812 C 722.628906 545.894531 725.148438 548.882812 727.261719 551.542969 C 729.371094 554.199219 731.820312 557.035156 734.023438 559.578125 C 736.226562 562.117188 736.964844 563 738.417969 564.554688 C 741.289062 567.824219 744.082031 570.835938 746.683594 573.601562 C 754.171875 579.207031 761.09375 585.441406 767.453125 592.300781 C 767.453125 592.300781 763.171875 588.863281 756.25 583.308594 C 757.601562 584.390625 758.65625 585.722656 759.78125 586.722656 C 760.90625 587.722656 761.421875 588.039062 762.128906 588.605469 L 764.238281 590.300781 C 765.410156 591.242188 766.410156 592.042969 767.289062 592.75 C 769.988281 594.914062 771.511719 596.136719 771.511719 596.136719 C 765.699219 592.265625 760.136719 588.058594 754.828125 583.519531 L 750.546875 580.082031 C 749.082031 578.90625 747.613281 577.726562 746.441406 576.304688 L 742.445312 572.515625 L 742.09375 572.234375 C 728.738281 563.179688 714.597656 555.597656 699.667969 549.484375 C 684.734375 543.367188 669.335938 538.851562 653.464844 535.9375 C 651.894531 537.917969 650.082031 539.640625 648.019531 541.105469 C 645.957031 542.570312 643.734375 543.71875 641.34375 544.546875 C 637.566406 545.292969 633.75 545.5625 629.90625 545.351562 C 626.058594 545.140625 622.296875 544.453125 618.625 543.296875 C 620.355469 539.933594 622.601562 536.957031 625.359375 534.367188 C 628.117188 531.777344 631.230469 529.722656 634.695312 528.203125 C 636.617188 527.496094 638.589844 526.972656 640.613281 526.636719 C 642.632812 526.300781 644.667969 526.160156 646.71875 526.210938 C 648.765625 526.257812 650.792969 526.5 652.796875 526.933594 C 654.796875 527.367188 656.742188 527.984375 658.628906 528.785156 C 684.652344 537.546875 709.3125 549.203125 732.605469 563.746094 C 730.632812 561.714844 728.746094 559.621094 726.941406 557.464844 C 724.679688 554.875 722.417969 552.289062 720.203125 549.640625 C 719.683594 549.136719 719.230469 548.578125 718.84375 547.96875 C 716.5 545.121094 713.964844 542.027344 711.964844 539.359375 C 710.730469 538.371094 709.921875 536.851562 708.988281 535.617188 C 708.050781 534.382812 706.105469 531.757812 704.769531 529.820312 C 700.492188 523.972656 696.496094 518.253906 692.84375 512.714844 C 691.941406 511.316406 691.050781 510.023438 690.207031 508.667969 C 689.363281 507.316406 688.15625 505.574219 687.242188 504.070312 C 682.933594 497.425781 679.386719 491.390625 676.472656 485.769531 L 673.5 480.582031 L 671.25 476.65625 L 669.566406 473.46875 C 667.234375 469.28125 665.726562 466.234375 664.964844 464.660156 L 664.554688 464.332031 L 664.203125 464.046875 C 662.757812 461.703125 661.546875 459.238281 660.570312 456.660156 C 659.59375 454.082031 658.871094 451.433594 658.402344 448.714844 C 657.933594 446 657.722656 443.261719 657.773438 440.503906 C 657.828125 437.746094 658.140625 435.019531 658.710938 432.320312 C 659.375 429.835938 660.246094 427.425781 661.332031 425.089844 C 662.414062 422.757812 663.691406 420.535156 665.164062 418.425781 C 666.636719 416.3125 668.28125 414.347656 670.097656 412.523438 C 671.914062 410.703125 673.875 409.050781 675.976562 407.570312 Z M 675.976562 407.570312 " fill-opacity="1" fill-rule="nonzero"/></g></g></g></g><g clip-path="url(#4a2761f817)"><g clip-path="url(#13007fe8a0)"><g clip-path="url(#d26a4273d5)"><g clip-path="url(#f72b81ac61)"><path fill="#ffb300" d="M 664.042969 524.445312 C 663.9375 522.421875 663.640625 520.433594 663.15625 518.46875 C 662.671875 516.503906 662.003906 514.605469 661.160156 512.769531 C 660.3125 510.933594 659.300781 509.191406 658.125 507.546875 C 656.945312 505.90625 655.625 504.386719 654.15625 502.996094 C 652.734375 501.765625 651.21875 500.667969 649.605469 499.703125 C 647.992188 498.738281 646.304688 497.921875 644.546875 497.253906 C 642.792969 496.582031 640.988281 496.070312 639.144531 495.71875 C 637.296875 495.363281 635.433594 495.171875 633.554688 495.140625 C 634.164062 498.894531 635.222656 502.519531 636.726562 506.011719 C 638.230469 509.507812 640.136719 512.765625 642.441406 515.789062 C 645.480469 518.355469 648.847656 520.378906 652.542969 521.859375 C 656.234375 523.339844 660.070312 524.199219 664.042969 524.445312 Z M 664.042969 524.445312 " fill-opacity="1" fill-rule="nonzero"/></g></g></g></g><g clip-path="url(#8242cba680)"><g clip-path="url(#4b3ba89e51)"><g clip-path="url(#ff82175465)"><g clip-path="url(#e01e6f9e89)"><path fill="#ffb300" d="M 551.136719 495.203125 C 550.277344 493.367188 549.25 491.628906 548.0625 489.988281 C 546.871094 488.34375 545.539062 486.828125 544.0625 485.4375 C 542.589844 484.046875 540.996094 482.804688 539.289062 481.714844 C 537.578125 480.625 535.78125 479.703125 533.898438 478.953125 C 530.289062 477.75 526.582031 477.1875 522.78125 477.265625 C 518.976562 477.34375 515.292969 478.054688 511.738281 479.40625 C 516.28125 485.621094 521.894531 490.644531 528.578125 494.46875 C 532.203125 495.78125 535.945312 496.5 539.796875 496.625 C 543.652344 496.75 547.433594 496.277344 551.136719 495.203125 Z M 551.136719 495.203125 " fill-opacity="1" fill-rule="nonzero"/></g></g></g></g><g clip-path="url(#d6969ee056)"><g clip-path="url(#624635ca44)"><g clip-path="url(#c9f87abe69)"><g clip-path="url(#9bfbcfac62)"><path fill="#ffb300" d="M 591.007812 494.675781 C 590.25 492.816406 589.328125 491.046875 588.238281 489.359375 C 587.148438 487.675781 585.910156 486.109375 584.527344 484.65625 C 583.140625 483.207031 581.632812 481.898438 580 480.730469 C 578.363281 479.566406 576.636719 478.5625 574.816406 477.722656 C 571.273438 476.355469 567.605469 475.625 563.808594 475.527344 C 560.015625 475.429688 556.3125 475.972656 552.703125 477.152344 C 554.539062 480.554688 556.765625 483.671875 559.386719 486.511719 C 562.003906 489.347656 564.9375 491.820312 568.175781 493.921875 C 571.847656 495.242188 575.632812 495.96875 579.53125 496.097656 C 583.429688 496.226562 587.253906 495.753906 591.007812 494.675781 Z M 591.007812 494.675781 " fill-opacity="1" fill-rule="nonzero"/></g></g></g></g><g clip-path="url(#2d861e18d4)"><g clip-path="url(#e4c7f2af05)"><g clip-path="url(#56a6176d1d)"><g clip-path="url(#0184b7e189)"><path fill="#ffb300" d="M 630.015625 512.765625 C 629.710938 510.769531 629.226562 508.816406 628.550781 506.910156 C 627.878906 505.007812 627.035156 503.183594 626.015625 501.4375 C 624.996094 499.695312 623.820312 498.0625 622.492188 496.539062 C 621.160156 495.019531 619.699219 493.640625 618.105469 492.394531 C 616.558594 491.300781 614.929688 490.351562 613.214844 489.542969 C 611.5 488.734375 609.726562 488.078125 607.898438 487.582031 C 606.066406 487.085938 604.207031 486.75 602.320312 486.578125 C 600.429688 486.410156 598.542969 486.402344 596.652344 486.5625 C 597.628906 490.246094 599.039062 493.753906 600.886719 497.082031 C 602.734375 500.414062 604.964844 503.464844 607.574219 506.238281 C 610.863281 508.511719 614.425781 510.203125 618.265625 511.320312 C 622.101562 512.4375 626.019531 512.917969 630.015625 512.765625 Z M 630.015625 512.765625 " fill-opacity="1" fill-rule="nonzero"/></g></g></g></g><g clip-path="url(#a65d5753d9)"><g clip-path="url(#c9771fb2e4)"><g clip-path="url(#7e61bff1ef)"><g clip-path="url(#a19cf34a12)"><path fill="#0c5300" d="M 770.101562 595.972656 C 641.257812 514.261719 655.816406 613.988281 655.816406 613.988281 C 674.664062 535 770.101562 595.972656 770.101562 595.972656 Z M 770.101562 595.972656 " fill-opacity="1" fill-rule="nonzero"/></g></g></g></g><g clip-path="url(#7d9b655c52)"><g clip-path="url(#b72bf53cba)"><g clip-path="url(#d39b48cbf3)"><g clip-path="url(#8a2ad8b46c)"><path fill="#0c5300" d="M 780.320312 401.941406 C 686.367188 321.695312 766.058594 596.683594 765.953125 596.214844 C 718.9375 345.523438 780.320312 401.941406 780.320312 401.941406 Z M 780.320312 401.941406 " fill-opacity="1" fill-rule="nonzero"/></g></g></g></g><g clip-path="url(#c1ae3893d0)"><g clip-path="url(#45e573f6bb)"><g clip-path="url(#35ebbb5cda)"><g clip-path="url(#55f4142183)"><path fill="#ffb300" d="M 769.910156 183.144531 C 767.859375 187.882812 765.257812 192.292969 762.105469 196.382812 C 758.957031 200.46875 755.351562 204.109375 751.292969 207.296875 C 740.417969 215.074219 720.265625 211.347656 720.265625 211.347656 C 721.070312 208.730469 722.113281 206.214844 723.398438 203.792969 C 724.679688 201.375 726.179688 199.097656 727.894531 196.960938 C 729.609375 194.824219 731.507812 192.871094 733.59375 191.09375 C 735.679688 189.316406 737.910156 187.753906 740.292969 186.398438 C 742.574219 185.285156 744.933594 184.375 747.375 183.667969 C 749.8125 182.960938 752.292969 182.46875 754.820312 182.191406 C 757.34375 181.914062 759.871094 181.855469 762.40625 182.015625 C 764.9375 182.175781 767.441406 182.550781 769.910156 183.144531 Z M 769.910156 183.144531 " fill-opacity="1" fill-rule="nonzero"/></g></g></g></g><g clip-path="url(#5197ddb233)"><g clip-path="url(#df9cf70f60)"><g clip-path="url(#47062d6403)"><g clip-path="url(#deecd16674)"><path fill="#ffb300" d="M 720.445312 219.894531 C 717.878906 220.855469 715.429688 222.050781 713.089844 223.476562 C 710.75 224.90625 708.566406 226.539062 706.535156 228.378906 C 704.503906 230.21875 702.664062 232.234375 701.015625 234.421875 C 699.363281 236.609375 697.933594 238.933594 696.722656 241.394531 C 696.722656 241.394531 716.238281 248.082031 728.167969 242.113281 C 732.644531 239.585938 736.75 236.554688 740.484375 233.023438 C 744.21875 229.488281 747.472656 225.554688 750.242188 221.222656 C 747.886719 220.265625 745.46875 219.519531 742.988281 218.976562 C 740.507812 218.433594 737.996094 218.105469 735.460938 217.992188 C 732.921875 217.878906 730.394531 217.984375 727.871094 218.300781 C 725.351562 218.621094 722.875 219.152344 720.445312 219.894531 Z M 720.445312 219.894531 " fill-opacity="1" fill-rule="nonzero"/></g></g></g></g><g clip-path="url(#4dd4a7fce7)"><g clip-path="url(#374a5e7cdb)"><g clip-path="url(#94638028b7)"><g clip-path="url(#7c3befb304)"><path fill="#ffb300" d="M 687.757812 252.921875 C 685.234375 254 682.835938 255.304688 680.5625 256.839844 C 678.285156 258.371094 676.175781 260.101562 674.226562 262.035156 C 672.28125 263.96875 670.53125 266.066406 668.980469 268.328125 C 667.433594 270.59375 666.109375 272.980469 665.007812 275.496094 C 665.007812 275.496094 684.855469 281.289062 696.453125 274.769531 C 700.792969 272.058594 704.742188 268.867188 708.296875 265.1875 C 711.851562 261.511719 714.910156 257.457031 717.472656 253.03125 C 715.089844 252.179688 712.652344 251.535156 710.160156 251.097656 C 707.667969 250.660156 705.15625 250.4375 702.628906 250.429688 C 700.097656 250.421875 697.582031 250.625 695.085938 251.042969 C 692.589844 251.460938 690.148438 252.089844 687.757812 252.921875 Z M 687.757812 252.921875 " fill-opacity="1" fill-rule="nonzero"/></g></g></g></g><g clip-path="url(#7761489411)"><g clip-path="url(#fbee592067)"><g clip-path="url(#a59cda425a)"><g clip-path="url(#ac5d632de6)"><path fill="#ffb300" d="M 658.589844 294.667969 C 656.773438 296.671875 655.160156 298.828125 653.746094 301.136719 C 652.332031 303.441406 651.144531 305.859375 650.175781 308.386719 C 649.210938 310.914062 648.488281 313.511719 648.007812 316.171875 C 647.523438 318.832031 647.289062 321.515625 647.304688 324.222656 C 652.273438 322.832031 657.015625 320.894531 661.535156 318.410156 C 666.054688 315.921875 670.234375 312.957031 674.066406 309.503906 C 677.332031 305.644531 679.964844 301.394531 681.964844 296.75 C 683.96875 292.109375 685.25 287.277344 685.816406 282.253906 C 683.277344 282.46875 680.773438 282.894531 678.304688 283.539062 C 675.839844 284.183594 673.445312 285.035156 671.125 286.09375 C 668.804688 287.152344 666.59375 288.398438 664.488281 289.839844 C 662.382812 291.277344 660.417969 292.886719 658.589844 294.667969 Z M 658.589844 294.667969 " fill-opacity="1" fill-rule="nonzero"/></g></g></g></g><g clip-path="url(#69593657fd)"><g clip-path="url(#9734529ac4)"><g clip-path="url(#c74ad7bdad)"><g clip-path="url(#f5a3b80c67)"><path fill="#ffb300" d="M 642.828125 346.980469 C 641.757812 349.507812 640.933594 352.109375 640.355469 354.792969 C 639.78125 357.476562 639.460938 360.1875 639.398438 362.929688 C 639.335938 365.671875 639.527344 368.394531 639.980469 371.101562 C 640.433594 373.804688 641.136719 376.445312 642.089844 379.015625 C 642.089844 379.015625 660.417969 369.402344 664.277344 356.667969 C 665.535156 351.660156 666.167969 346.574219 666.164062 341.410156 C 666.164062 336.246094 665.53125 331.164062 664.269531 326.15625 C 661.949219 327.210938 659.738281 328.457031 657.636719 329.890625 C 655.53125 331.328125 653.566406 332.929688 651.738281 334.707031 C 649.914062 336.480469 648.25 338.398438 646.753906 340.457031 C 645.257812 342.519531 643.949219 344.691406 642.828125 346.980469 Z M 642.828125 346.980469 " fill-opacity="1" fill-rule="nonzero"/></g></g></g></g><g clip-path="url(#b1e18ff1a0)"><g clip-path="url(#f695a0af68)"><g clip-path="url(#86d137e69a)"><g clip-path="url(#8fad180d42)"><path fill="#ffb300" d="M 646.046875 393.195312 C 645.476562 395.871094 645.164062 398.582031 645.109375 401.316406 C 645.050781 404.054688 645.253906 406.773438 645.710938 409.472656 C 646.171875 412.171875 646.878906 414.804688 647.835938 417.367188 C 648.796875 419.929688 649.984375 422.382812 651.40625 424.722656 C 651.40625 424.722656 667.554688 411.8125 668.945312 398.546875 C 669.273438 393.371094 668.960938 388.238281 668.003906 383.140625 C 667.050781 378.046875 665.488281 373.144531 663.3125 368.441406 C 661.210938 369.925781 659.25 371.578125 657.4375 373.402344 C 655.625 375.226562 653.980469 377.195312 652.507812 379.304688 C 651.035156 381.414062 649.757812 383.636719 648.671875 385.96875 C 647.585938 388.300781 646.710938 390.710938 646.046875 393.195312 Z M 646.046875 393.195312 " fill-opacity="1" fill-rule="nonzero"/></g></g></g></g><g clip-path="url(#56b2f5b20d)"><g clip-path="url(#4fcbc69243)"><g clip-path="url(#7579280b40)"><g clip-path="url(#27b7d85f7d)"><path fill="#ffb300" d="M 638.953125 440.59375 C 634.441406 438.089844 629.6875 436.175781 624.695312 434.847656 C 619.707031 433.523438 614.628906 432.824219 609.464844 432.753906 C 609.902344 435.265625 610.546875 437.722656 611.402344 440.125 C 612.253906 442.527344 613.304688 444.839844 614.546875 447.0625 C 615.792969 449.289062 617.214844 451.390625 618.816406 453.375 C 620.417969 455.355469 622.175781 457.191406 624.085938 458.875 C 626.25 460.558594 628.546875 462.023438 630.988281 463.273438 C 633.425781 464.519531 635.964844 465.523438 638.59375 466.289062 C 641.226562 467.054688 643.90625 467.566406 646.632812 467.820312 C 649.363281 468.078125 652.089844 468.074219 654.820312 467.808594 C 654.820312 467.808594 650.265625 447.648438 638.953125 440.59375 Z M 638.953125 440.59375 " fill-opacity="1" fill-rule="nonzero"/></g></g></g></g><g clip-path="url(#7440406971)"><g clip-path="url(#89747f1df3)"><g clip-path="url(#ad6167842b)"><g clip-path="url(#360e56f1cb)"><path fill="#ffb300" d="M 684.984375 236.796875 C 689.929688 234.789062 694.542969 232.195312 698.828125 229.015625 C 703.113281 225.832031 706.933594 222.164062 710.285156 218.011719 C 718.5 206.457031 715.046875 188.046875 715.046875 188.046875 C 712.667969 188.796875 710.363281 189.738281 708.136719 190.867188 C 705.910156 192 703.789062 193.304688 701.78125 194.789062 C 699.769531 196.269531 697.894531 197.90625 696.15625 199.699219 C 694.417969 201.492188 692.835938 203.417969 691.417969 205.472656 C 689.980469 207.789062 688.757812 210.21875 687.746094 212.75 C 686.738281 215.285156 685.960938 217.890625 685.410156 220.5625 C 684.863281 223.234375 684.550781 225.933594 684.480469 228.660156 C 684.40625 231.386719 684.574219 234.097656 684.984375 236.796875 Z M 684.984375 236.796875 " fill-opacity="1" fill-rule="nonzero"/></g></g></g></g><g clip-path="url(#7ba84303af)"><g clip-path="url(#a43504c44f)"><g clip-path="url(#51541f6cec)"><g clip-path="url(#35389810a6)"><path fill="#ffb300" d="M 674.125 248.15625 C 675.652344 243.316406 676.429688 238.355469 676.460938 233.28125 C 676.492188 228.203125 675.773438 223.234375 674.304688 218.378906 C 671.976562 219.488281 669.761719 220.792969 667.660156 222.292969 C 665.5625 223.792969 663.609375 225.460938 661.800781 227.304688 C 659.992188 229.144531 658.359375 231.128906 656.898438 233.257812 C 655.441406 235.386719 654.175781 237.625 653.109375 239.976562 C 652.136719 242.511719 651.410156 245.113281 650.929688 247.785156 C 650.449219 250.453125 650.21875 253.148438 650.246094 255.859375 C 650.269531 258.574219 650.550781 261.261719 651.082031 263.921875 C 651.613281 266.582031 652.390625 269.167969 653.410156 271.683594 C 657.734375 268.625 661.644531 265.109375 665.144531 261.132812 C 668.644531 257.160156 671.640625 252.835938 674.125 248.15625 Z M 674.125 248.15625 " fill-opacity="1" fill-rule="nonzero"/></g></g></g></g><g clip-path="url(#d7faf0a6cd)"><g clip-path="url(#9d408e4ade)"><g clip-path="url(#3f01474c74)"><g clip-path="url(#f2dca7f162)"><path fill="#ffb300" d="M 647.441406 282.242188 C 646.566406 277.148438 645.167969 272.207031 643.25 267.410156 C 641.328125 262.613281 638.925781 258.074219 636.042969 253.785156 C 634.386719 255.71875 632.902344 257.777344 631.597656 259.960938 C 630.292969 262.148438 629.183594 264.429688 628.273438 266.804688 C 627.359375 269.179688 626.65625 271.617188 626.160156 274.113281 C 625.667969 276.609375 625.390625 279.128906 625.328125 281.671875 C 625.394531 284.417969 625.71875 287.128906 626.304688 289.8125 C 626.890625 292.492188 627.722656 295.09375 628.804688 297.613281 C 629.886719 300.136719 631.195312 302.53125 632.734375 304.804688 C 634.273438 307.074219 636.015625 309.179688 637.957031 311.117188 C 637.957031 311.117188 649.257812 295.476562 647.441406 282.242188 Z M 647.441406 282.242188 " fill-opacity="1" fill-rule="nonzero"/></g></g></g></g><g clip-path="url(#bbbb63d985)"><g clip-path="url(#62f8ccdbbd)"><g clip-path="url(#5d9f23bf6a)"><g clip-path="url(#a67806edac)"><path fill="#ffb300" d="M 633.671875 320.902344 C 632.117188 315.980469 629.984375 311.320312 627.28125 306.925781 C 624.574219 302.53125 621.371094 298.535156 617.675781 294.933594 C 616.261719 297.054688 615.039062 299.277344 614.007812 301.609375 C 612.976562 303.9375 612.152344 306.339844 611.53125 308.808594 C 610.910156 311.28125 610.507812 313.785156 610.316406 316.328125 C 610.125 318.867188 610.152344 321.40625 610.398438 323.941406 C 610.8125 326.664062 611.480469 329.328125 612.398438 331.925781 C 613.320312 334.523438 614.480469 337.011719 615.875 339.390625 C 617.269531 341.765625 618.878906 343.992188 620.699219 346.058594 C 622.519531 348.128906 624.519531 350.007812 626.695312 351.695312 C 626.695312 351.695312 637.109375 333.796875 633.671875 320.902344 Z M 633.671875 320.902344 " fill-opacity="1" fill-rule="nonzero"/></g></g></g></g><g clip-path="url(#1333e6b113)"><g clip-path="url(#9a0dab29b8)"><g clip-path="url(#6584613bf3)"><g clip-path="url(#654e7155b6)"><path fill="#ffb300" d="M 626.609375 360.699219 C 623.1875 356.910156 619.359375 353.585938 615.128906 350.726562 C 610.898438 347.871094 606.386719 345.5625 601.59375 343.800781 C 601.160156 346.320312 600.949219 348.855469 600.953125 351.410156 C 600.960938 353.964844 601.191406 356.5 601.636719 359.015625 C 602.085938 361.53125 602.746094 363.988281 603.621094 366.386719 C 604.492188 368.789062 605.566406 371.09375 606.839844 373.308594 C 608.332031 375.597656 610.027344 377.730469 611.921875 379.699219 C 613.816406 381.671875 615.875 383.449219 618.105469 385.03125 C 620.335938 386.613281 622.691406 387.976562 625.175781 389.113281 C 627.664062 390.253906 630.234375 391.148438 632.886719 391.800781 C 632.886719 391.800781 634.964844 371.074219 626.609375 360.699219 Z M 626.609375 360.699219 " fill-opacity="1" fill-rule="nonzero"/></g></g></g></g><g clip-path="url(#e09d4db90f)"><g clip-path="url(#bef1a398bf)"><g clip-path="url(#d852c0a46c)"><g clip-path="url(#45600fffde)"><path fill="#ffb300" d="M 628.054688 399.988281 C 623.8125 397.054688 619.28125 394.683594 614.457031 392.867188 C 609.628906 391.050781 604.65625 389.847656 599.535156 389.257812 C 599.703125 391.800781 600.089844 394.3125 600.691406 396.789062 C 601.292969 399.265625 602.101562 401.675781 603.117188 404.011719 C 604.132812 406.347656 605.34375 408.582031 606.742188 410.710938 C 608.144531 412.839844 609.71875 414.832031 611.460938 416.691406 C 613.445312 418.578125 615.589844 420.261719 617.890625 421.742188 C 620.191406 423.222656 622.613281 424.472656 625.152344 425.496094 C 627.691406 426.519531 630.304688 427.292969 632.992188 427.820312 C 635.679688 428.347656 638.390625 428.617188 641.128906 428.632812 C 641.128906 428.632812 638.683594 408.132812 628.054688 399.988281 Z M 628.054688 399.988281 " fill-opacity="1" fill-rule="nonzero"/></g></g></g></g></svg>